<?xml version="1.0" encoding="UTF-8"?>
<svg id="Layer_1" data-name="Layer 1" xmlns="http://www.w3.org/2000/svg" viewBox="0 0 513.94 509.62">
  <defs>
    <style>
      .cls-1 {
        fill: #bb1c24;
        stroke: #931c24;
        stroke-miterlimit: 10;
        stroke-width: 6px;
      }

      .cls-2, .cls-3 {
        fill: #fede03;
      }

      .cls-2, .cls-4 {
        stroke-width: 15.87px;
      }

      .cls-2, .cls-4, .cls-5 {
        stroke: #35435a;
        stroke-linecap: round;
        stroke-linejoin: round;
      }

      .cls-6 {
        fill: #bbab24;
        opacity: .26;
      }

      .cls-7 {
        fill: #98e6fd;
      }

      .cls-8 {
        opacity: .88;
      }

      .cls-4, .cls-5 {
        fill: none;
      }

      .cls-5 {
        stroke-width: 16.93px;
      }
    </style>
  </defs>
  <ellipse class="cls-6" cx="248.35" cy="255.45" rx="155.87" ry="145.23"/>
  <g id="Generative_Object" data-name="Generative Object">
    <g>
      <path class="cls-7" d="M226.37,471.64c14.93,1.16,39.82,1.16,54.75,0,.48,2.46-1.19,4.51-2.19,6.58-14.72,30.22-35.51,31.2-50,0-.98-2.12-2.15-4.2-2.55-6.57Z"/>
      <path class="cls-3" d="M86.01,398.35c5.69-2.08,12.67-.19,18.59.51,3.2.38,6.3.82,9.45,1.58-3.34,10.83-1.44,25.05-14.29,30.94-22.5,10.3-36.68-24.64-13.75-33.03Z"/>
      <path class="cls-3" d="M87.74,75.56c21.77-5.36,20.61,15.71,23.07,27.99-1.93,1.08-4.06,1.82-6.04,2.83-32.72,16.75-40.52-25.04-17.03-30.82Z"/>
      <path class="cls-3" d="M19.3,237.51c11.32-4.38,25.42,6.44,28.17,16.59l.67.93-.7.87c-.95,3.2-11.22,13.61-15.1,14.97-23.16,8.09-34.38-25.09-13.04-33.35Z"/>
      <path class="cls-3" d="M248.03,8.77c15.6-4.78,28.85,11.96,20.31,26.53-3.21,5.47-9.93,7.11-12.64,10.7l-3.94-2.36c-19.36-2.07-22.4-29.14-3.73-34.87Z"/>
      <path class="cls-2" d="M410.24,75.51c13.78-3.04,25.58,10.35,20.82,23.63-5.42,15.13-22.65,11.65-35.32,13.62.67-13.56-3.42-33.3,14.49-37.26Z"/>
      <path class="cls-2" d="M400.15,398.12c39.12-12.74,40.72,40.92,10.33,34.58-16.92-3.53-14.57-20.41-12.74-33.24-.08-.47-.1-.91.1-1.19.22-.32,1.52.1,2.31-.16Z"/>
      <path class="cls-2" d="M474.78,237.27c24.26-7.26,33.06,29.26,9.43,34.44-10.14,2.23-23.45-8.63-25.34-17.39-.08-.39-.63-.66-.64-.92-.14-2.49,12.42-14.89,16.55-16.13Z"/>
    </g>
    <g>
      <path class="cls-4" d="M251.76,43.64c-19.36-2.07-22.4-29.14-3.73-34.87,15.6-4.78,28.85,11.96,20.31,26.53-3.21,5.47-9.93,7.11-12.64,10.7-5,6.62-.29,41.84-1.96,52.12"/>
      <path class="cls-4" d="M104.76,106.37c-32.72,16.75-40.52-25.04-17.03-30.82,21.77-5.36,20.61,15.71,23.07,27.99.81,4.04-.11,6.25,2.29,10.48,5.3,9.34,23.91,21.9,30.61,31.72"/>
      <line class="cls-4" x1="395.75" y1="112.76" x2="362.73" y2="144.68"/>
      <line class="cls-4" x1="409.29" y1="253.67" x2="458.23" y2="253.41"/>
      <line class="cls-4" x1="48.13" y1="255.02" x2="98.2" y2="254.73"/>
      <path class="cls-4" d="M48.13,255.02c-.03-.28-.56-.53-.67-.93-2.75-10.14-16.84-20.97-28.17-16.59-21.34,8.26-10.12,41.44,13.04,33.35,3.88-1.36,14.15-11.77,15.1-14.97.14-.48.71-.74.7-.87Z"/>
      <line class="cls-5" x1="362.73" y1="363.71" x2="397.84" y2="398.28"/>
      <path class="cls-4" d="M143.7,362.66c-11.55,13.41-24.3,20.41-29.65,37.78-3.34,10.83-1.44,25.05-14.29,30.94-22.5,10.3-36.68-24.64-13.75-33.03,5.69-2.08,12.67-.19,18.59.51"/>
      <path class="cls-4" d="M299.55,399.73c-.1,2.87.44,5.81.26,8.67-.73,11.91,3.31,48.39-.78,56.9s-10.63,5.78-17.91,6.35c-14.93,1.16-39.82,1.16-54.75,0-7.32-.57-13.73,2.25-17.91-6.35-4.39-9.03.47-45.36-.66-57.73-.24-2.63,1.06-5.71-1.11-7.94C44.23,345.23,79.7,102.1,253.01,101.7c129.22-.3,200.48,152.31,116.56,250.55-19.35,22.65-45.32,32.05-70.02,47.49h0Z"/>
      <path class="cls-4" d="M228.92,478.22c14.49,31.21,35.28,30.23,50,0"/>
      <path class="cls-4" d="M293.95,408.2c-26.44-.33-54.14-1.92-80.42-1.17"/>
      <line class="cls-4" x1="213.54" y1="439.9" x2="293.95" y2="439.9"/>
    </g>
  </g>
  <g id="Generative_Object-2" data-name="Generative Object" class="cls-8">
    <g>
      <path class="cls-7" d="M234.29,472.07c14.93,1.16,39.82,1.16,54.75,0,.48,2.46-1.19,4.51-2.19,6.58-14.72,30.22-35.51,31.2-50,0-.98-2.12-2.15-4.2-2.55-6.57Z"/>
      <path class="cls-3" d="M93.92,398.77c5.69-2.08,12.67-.19,18.59.51,3.2.38,6.3.82,9.45,1.58-3.34,10.83-1.44,25.05-14.29,30.94-22.5,10.3-36.68-24.64-13.75-33.03Z"/>
      <path class="cls-3" d="M95.65,75.99c21.77-5.36,20.61,15.71,23.07,27.99-1.93,1.08-4.06,1.82-6.04,2.83-32.72,16.75-40.52-25.04-17.03-30.82Z"/>
      <path class="cls-3" d="M27.21,237.93c11.32-4.38,25.42,6.44,28.17,16.59l.67.93-.7.87c-.95,3.2-11.22,13.61-15.1,14.97-23.16,8.09-34.38-25.09-13.04-33.35Z"/>
      <path class="cls-3" d="M255.95,9.2c15.6-4.78,28.85,11.96,20.31,26.53-3.21,5.47-9.93,7.11-12.64,10.7l-3.94-2.36c-19.36-2.07-22.4-29.14-3.73-34.87Z"/>
      <path class="cls-2" d="M418.16,75.93c13.78-3.04,25.58,10.35,20.82,23.63-5.42,15.13-22.65,11.65-35.32,13.62.67-13.56-3.42-33.3,14.49-37.26Z"/>
      <path class="cls-2" d="M408.06,398.55c39.12-12.74,40.72,40.92,10.33,34.58-16.92-3.53-14.57-20.41-12.74-33.24-.08-.47-.1-.91.1-1.19.22-.32,1.52.1,2.31-.16Z"/>
      <path class="cls-2" d="M482.7,237.7c24.26-7.26,33.06,29.26,9.43,34.44-10.14,2.23-23.45-8.63-25.34-17.39-.08-.39-.63-.66-.64-.92-.14-2.49,12.42-14.89,16.55-16.13Z"/>
    </g>
    <g>
      <path class="cls-4" d="M259.68,44.06c-19.36-2.07-22.4-29.14-3.73-34.87,15.6-4.78,28.85,11.96,20.31,26.53-3.21,5.47-9.93,7.11-12.64,10.7-5,6.62-.29,41.84-1.96,52.12"/>
      <path class="cls-4" d="M112.68,106.8c-32.72,16.75-40.52-25.04-17.03-30.82,21.77-5.36,20.61,15.71,23.07,27.99.81,4.04-.11,6.25,2.29,10.48,5.3,9.34,23.91,21.9,30.61,31.72"/>
      <line class="cls-4" x1="403.67" y1="113.19" x2="370.65" y2="145.11"/>
      <line class="cls-4" x1="417.2" y1="254.09" x2="466.14" y2="253.83"/>
      <line class="cls-4" x1="56.05" y1="255.45" x2="106.12" y2="255.15"/>
      <path class="cls-4" d="M56.05,255.45c-.03-.28-.56-.53-.67-.93-2.75-10.14-16.84-20.97-28.17-16.59-21.34,8.26-10.12,41.44,13.04,33.35,3.88-1.36,14.15-11.77,15.1-14.97.14-.48.71-.74.7-.87Z"/>
      <line class="cls-5" x1="370.65" y1="364.14" x2="405.75" y2="398.7"/>
      <path class="cls-4" d="M151.62,363.08c-11.55,13.41-24.3,20.41-29.65,37.78-3.34,10.83-1.44,25.05-14.29,30.94-22.5,10.3-36.68-24.64-13.75-33.03,5.69-2.08,12.67-.19,18.59.51"/>
      <path class="cls-4" d="M307.47,400.15c-.1,2.87.44,5.81.26,8.67-.73,11.91,3.31,48.39-.78,56.9s-10.63,5.78-17.91,6.35c-14.93,1.16-39.82,1.16-54.75,0-7.32-.57-13.73,2.25-17.91-6.35-4.39-9.03.47-45.36-.66-57.73-.24-2.63,1.06-5.71-1.11-7.94-162.46-54.4-126.99-297.53,46.32-297.93,129.22-.3,200.48,152.31,116.56,250.55-19.35,22.65-45.32,32.05-70.02,47.49h0Z"/>
      <path class="cls-4" d="M236.84,478.64c14.49,31.21,35.28,30.23,50,0"/>
      <path class="cls-4" d="M301.87,408.63c-26.44-.33-54.14-1.92-80.42-1.17"/>
      <line class="cls-4" x1="221.45" y1="440.32" x2="301.87" y2="440.32"/>
    </g>
  </g>
  <g id="Generative_Object-3" data-name="Generative Object">
    <path class="cls-1" d="M203.23,161.53c2.83-.51,6.79.37,9.79,0,18.06,15.07,130.81,70.03,137.41,83.2,4.27,8.52.58,17.92-7.15,22.96-41.7,19.79-83.08,53.94-124.23,73.03-10.58,4.91-16.98,5.17-25.22-4.14-5.21-53.26-.8-108.61-2.26-162.63.89-5.36,6.05-11.42,11.67-12.42Z"/>
  </g>
</svg>